G04 #@! TF.GenerationSoftware,KiCad,Pcbnew,8.0.0*
G04 #@! TF.CreationDate,2024-03-12T14:16:29+01:00*
G04 #@! TF.ProjectId,Samochodzik,53616d6f-6368-46f6-947a-696b2e6b6963,rev?*
G04 #@! TF.SameCoordinates,Original*
G04 #@! TF.FileFunction,Legend,Bot*
G04 #@! TF.FilePolarity,Positive*
%FSLAX46Y46*%
G04 Gerber Fmt 4.6, Leading zero omitted, Abs format (unit mm)*
G04 Created by KiCad (PCBNEW 8.0.0) date 2024-03-12 14:16:29*
%MOMM*%
%LPD*%
G01*
G04 APERTURE LIST*
G04 Aperture macros list*
%AMRoundRect*
0 Rectangle with rounded corners*
0 $1 Rounding radius*
0 $2 $3 $4 $5 $6 $7 $8 $9 X,Y pos of 4 corners*
0 Add a 4 corners polygon primitive as box body*
4,1,4,$2,$3,$4,$5,$6,$7,$8,$9,$2,$3,0*
0 Add four circle primitives for the rounded corners*
1,1,$1+$1,$2,$3*
1,1,$1+$1,$4,$5*
1,1,$1+$1,$6,$7*
1,1,$1+$1,$8,$9*
0 Add four rect primitives between the rounded corners*
20,1,$1+$1,$2,$3,$4,$5,0*
20,1,$1+$1,$4,$5,$6,$7,0*
20,1,$1+$1,$6,$7,$8,$9,0*
20,1,$1+$1,$8,$9,$2,$3,0*%
G04 Aperture macros list end*
%ADD10C,0.150000*%
%ADD11C,0.100000*%
%ADD12C,0.200000*%
%ADD13C,0.120000*%
%ADD14RoundRect,0.250000X0.845000X-0.620000X0.845000X0.620000X-0.845000X0.620000X-0.845000X-0.620000X0*%
%ADD15O,2.190000X1.740000*%
%ADD16R,1.700000X1.700000*%
%ADD17O,1.700000X1.700000*%
%ADD18R,1.600000X1.600000*%
%ADD19C,1.600000*%
%ADD20RoundRect,0.250000X-0.845000X0.620000X-0.845000X-0.620000X0.845000X-0.620000X0.845000X0.620000X0*%
%ADD21R,1.500000X1.500000*%
%ADD22C,1.500000*%
%ADD23R,2.200000X2.200000*%
%ADD24O,2.200000X2.200000*%
%ADD25O,3.500000X3.500000*%
%ADD26R,1.905000X2.000000*%
%ADD27O,1.905000X2.000000*%
%ADD28R,1.800000X1.800000*%
%ADD29C,1.800000*%
%ADD30RoundRect,0.250000X0.620000X0.845000X-0.620000X0.845000X-0.620000X-0.845000X0.620000X-0.845000X0*%
%ADD31O,1.740000X2.190000*%
%ADD32C,2.000000*%
%ADD33C,3.200000*%
%ADD34O,1.600000X1.600000*%
%ADD35C,2.600000*%
%ADD36RoundRect,0.237500X-0.237500X0.250000X-0.237500X-0.250000X0.237500X-0.250000X0.237500X0.250000X0*%
%ADD37RoundRect,0.237500X-0.250000X-0.237500X0.250000X-0.237500X0.250000X0.237500X-0.250000X0.237500X0*%
%ADD38RoundRect,0.687500X1.437500X0.687500X-1.437500X0.687500X-1.437500X-0.687500X1.437500X-0.687500X0*%
%ADD39RoundRect,0.687500X-0.687500X1.437500X-0.687500X-1.437500X0.687500X-1.437500X0.687500X1.437500X0*%
%ADD40RoundRect,1.000000X2.000000X1.000000X-2.000000X1.000000X-2.000000X-1.000000X2.000000X-1.000000X0*%
%ADD41RoundRect,0.237500X0.250000X0.237500X-0.250000X0.237500X-0.250000X-0.237500X0.250000X-0.237500X0*%
G04 APERTURE END LIST*
D10*
X214179155Y-54745549D02*
X213702964Y-54412216D01*
X214179155Y-54174121D02*
X213179155Y-54174121D01*
X213179155Y-54174121D02*
X213179155Y-54555073D01*
X213179155Y-54555073D02*
X213226774Y-54650311D01*
X213226774Y-54650311D02*
X213274393Y-54697930D01*
X213274393Y-54697930D02*
X213369631Y-54745549D01*
X213369631Y-54745549D02*
X213512488Y-54745549D01*
X213512488Y-54745549D02*
X213607726Y-54697930D01*
X213607726Y-54697930D02*
X213655345Y-54650311D01*
X213655345Y-54650311D02*
X213702964Y-54555073D01*
X213702964Y-54555073D02*
X213702964Y-54174121D01*
X213179155Y-55602692D02*
X213179155Y-55412216D01*
X213179155Y-55412216D02*
X213226774Y-55316978D01*
X213226774Y-55316978D02*
X213274393Y-55269359D01*
X213274393Y-55269359D02*
X213417250Y-55174121D01*
X213417250Y-55174121D02*
X213607726Y-55126502D01*
X213607726Y-55126502D02*
X213988678Y-55126502D01*
X213988678Y-55126502D02*
X214083916Y-55174121D01*
X214083916Y-55174121D02*
X214131536Y-55221740D01*
X214131536Y-55221740D02*
X214179155Y-55316978D01*
X214179155Y-55316978D02*
X214179155Y-55507454D01*
X214179155Y-55507454D02*
X214131536Y-55602692D01*
X214131536Y-55602692D02*
X214083916Y-55650311D01*
X214083916Y-55650311D02*
X213988678Y-55697930D01*
X213988678Y-55697930D02*
X213750583Y-55697930D01*
X213750583Y-55697930D02*
X213655345Y-55650311D01*
X213655345Y-55650311D02*
X213607726Y-55602692D01*
X213607726Y-55602692D02*
X213560107Y-55507454D01*
X213560107Y-55507454D02*
X213560107Y-55316978D01*
X213560107Y-55316978D02*
X213607726Y-55221740D01*
X213607726Y-55221740D02*
X213655345Y-55174121D01*
X213655345Y-55174121D02*
X213750583Y-55126502D01*
X221954819Y-55745833D02*
X221478628Y-55412500D01*
X221954819Y-55174405D02*
X220954819Y-55174405D01*
X220954819Y-55174405D02*
X220954819Y-55555357D01*
X220954819Y-55555357D02*
X221002438Y-55650595D01*
X221002438Y-55650595D02*
X221050057Y-55698214D01*
X221050057Y-55698214D02*
X221145295Y-55745833D01*
X221145295Y-55745833D02*
X221288152Y-55745833D01*
X221288152Y-55745833D02*
X221383390Y-55698214D01*
X221383390Y-55698214D02*
X221431009Y-55650595D01*
X221431009Y-55650595D02*
X221478628Y-55555357D01*
X221478628Y-55555357D02*
X221478628Y-55174405D01*
X221288152Y-56602976D02*
X221954819Y-56602976D01*
X220907200Y-56364881D02*
X221621485Y-56126786D01*
X221621485Y-56126786D02*
X221621485Y-56745833D01*
X215666666Y-62797319D02*
X215999999Y-62321128D01*
X216238094Y-62797319D02*
X216238094Y-61797319D01*
X216238094Y-61797319D02*
X215857142Y-61797319D01*
X215857142Y-61797319D02*
X215761904Y-61844938D01*
X215761904Y-61844938D02*
X215714285Y-61892557D01*
X215714285Y-61892557D02*
X215666666Y-61987795D01*
X215666666Y-61987795D02*
X215666666Y-62130652D01*
X215666666Y-62130652D02*
X215714285Y-62225890D01*
X215714285Y-62225890D02*
X215761904Y-62273509D01*
X215761904Y-62273509D02*
X215857142Y-62321128D01*
X215857142Y-62321128D02*
X216238094Y-62321128D01*
X215333332Y-61797319D02*
X214666666Y-61797319D01*
X214666666Y-61797319D02*
X215095237Y-62797319D01*
D11*
X195394360Y-116127580D02*
X195489598Y-116127580D01*
X195489598Y-116127580D02*
X195584836Y-116079961D01*
X195584836Y-116079961D02*
X195632455Y-116032342D01*
X195632455Y-116032342D02*
X195680074Y-115937104D01*
X195680074Y-115937104D02*
X195727693Y-115746628D01*
X195727693Y-115746628D02*
X195727693Y-115508533D01*
X195727693Y-115508533D02*
X195680074Y-115318057D01*
X195680074Y-115318057D02*
X195632455Y-115222819D01*
X195632455Y-115222819D02*
X195584836Y-115175200D01*
X195584836Y-115175200D02*
X195489598Y-115127580D01*
X195489598Y-115127580D02*
X195394360Y-115127580D01*
X195394360Y-115127580D02*
X195299122Y-115175200D01*
X195299122Y-115175200D02*
X195251503Y-115222819D01*
X195251503Y-115222819D02*
X195203884Y-115318057D01*
X195203884Y-115318057D02*
X195156265Y-115508533D01*
X195156265Y-115508533D02*
X195156265Y-115746628D01*
X195156265Y-115746628D02*
X195203884Y-115937104D01*
X195203884Y-115937104D02*
X195251503Y-116032342D01*
X195251503Y-116032342D02*
X195299122Y-116079961D01*
X195299122Y-116079961D02*
X195394360Y-116127580D01*
X196013408Y-116127580D02*
X196346741Y-115127580D01*
X196346741Y-115127580D02*
X196680074Y-116127580D01*
D12*
G36*
X207831297Y-123511256D02*
G01*
X208744277Y-123511256D01*
X208529588Y-122479574D01*
X209526831Y-122479574D01*
X209741521Y-123511256D01*
X210658164Y-123511256D01*
X210033879Y-120510000D01*
X209117236Y-120510000D01*
X209370760Y-121729260D01*
X208373517Y-121729260D01*
X208119993Y-120510000D01*
X207207013Y-120510000D01*
X207831297Y-123511256D01*
G37*
G36*
X211018667Y-123511256D02*
G01*
X211886217Y-123511256D01*
X211849581Y-121834773D01*
X212653384Y-123511256D01*
X213518736Y-123511256D01*
X213627180Y-121834773D01*
X214288101Y-123511256D01*
X215151256Y-123511256D01*
X213875575Y-120510000D01*
X212980914Y-120510000D01*
X212855617Y-122399706D01*
X211947034Y-120510000D01*
X211051639Y-120510000D01*
X211018667Y-123511256D01*
G37*
G36*
X214948290Y-121963733D02*
G01*
X216141905Y-121963733D01*
X216005617Y-121307208D01*
X214812002Y-121307208D01*
X214948290Y-121963733D01*
G37*
G36*
X217358234Y-122620258D02*
G01*
X216608653Y-122752149D01*
X216680343Y-122892163D01*
X216761873Y-123019297D01*
X216869429Y-123151341D01*
X216990378Y-123265855D01*
X217104710Y-123350055D01*
X217253028Y-123431139D01*
X217394279Y-123484789D01*
X217548564Y-123523806D01*
X217715883Y-123548193D01*
X217865274Y-123557337D01*
X217927564Y-123558150D01*
X218099548Y-123552927D01*
X218253714Y-123537256D01*
X218415195Y-123504661D01*
X218571162Y-123447620D01*
X218706648Y-123357357D01*
X218720376Y-123344193D01*
X218818470Y-123215503D01*
X218872051Y-123069309D01*
X218881119Y-122905610D01*
X218866922Y-122807103D01*
X218818690Y-122659310D01*
X218738291Y-122523125D01*
X218690334Y-122464187D01*
X218573762Y-122354140D01*
X218442645Y-122262678D01*
X218318108Y-122194542D01*
X218458792Y-122147098D01*
X218558443Y-122092693D01*
X218665971Y-121984066D01*
X218735031Y-121845764D01*
X218761177Y-121701047D01*
X218753056Y-121546323D01*
X218741625Y-121481598D01*
X218699984Y-121333664D01*
X218637710Y-121189093D01*
X218554801Y-121047883D01*
X218499825Y-120970886D01*
X218401136Y-120855893D01*
X218290448Y-120754914D01*
X218167762Y-120667948D01*
X218033077Y-120594996D01*
X217884425Y-120537294D01*
X217740680Y-120500328D01*
X217584172Y-120475985D01*
X217414902Y-120464264D01*
X217338450Y-120463105D01*
X217171504Y-120467698D01*
X217022650Y-120481477D01*
X216874685Y-120508474D01*
X216722958Y-120559092D01*
X216588402Y-120636064D01*
X216477915Y-120733988D01*
X216398360Y-120841193D01*
X216332352Y-120980315D01*
X216290679Y-121126173D01*
X216268100Y-121273231D01*
X216265003Y-121307941D01*
X217104710Y-121400997D01*
X217121110Y-121250348D01*
X217188137Y-121112429D01*
X217193370Y-121107173D01*
X217327665Y-121037278D01*
X217435170Y-121025840D01*
X217582968Y-121051439D01*
X217717242Y-121128236D01*
X217734124Y-121142344D01*
X217834001Y-121259652D01*
X217894344Y-121394953D01*
X217909246Y-121453754D01*
X217922148Y-121600217D01*
X217877346Y-121746860D01*
X217867480Y-121760767D01*
X217743034Y-121849047D01*
X217602965Y-121869944D01*
X217450008Y-121851625D01*
X217327459Y-121823049D01*
X217498185Y-122441472D01*
X217603698Y-122432679D01*
X217756106Y-122455211D01*
X217890928Y-122522805D01*
X217997075Y-122627869D01*
X218043335Y-122736029D01*
X218028910Y-122886192D01*
X218001570Y-122924340D01*
X217868163Y-122989793D01*
X217794940Y-122995415D01*
X217642956Y-122968985D01*
X217541416Y-122911884D01*
X217441765Y-122797578D01*
X217372668Y-122658305D01*
X217358234Y-122620258D01*
G37*
G36*
X220124943Y-120464576D02*
G01*
X220303509Y-120481127D01*
X220473132Y-120516067D01*
X220633810Y-120569398D01*
X220785543Y-120641118D01*
X220928332Y-120731228D01*
X221062177Y-120839727D01*
X221185767Y-120968012D01*
X221275985Y-121085890D01*
X221358508Y-121217323D01*
X221433338Y-121362312D01*
X221500474Y-121520856D01*
X221559917Y-121692955D01*
X221611666Y-121878610D01*
X221645429Y-122026748D01*
X221665189Y-122128300D01*
X221690079Y-122289110D01*
X221704916Y-122439366D01*
X221709450Y-122605741D01*
X221699507Y-122756918D01*
X221669609Y-122914082D01*
X221630685Y-123033539D01*
X221562839Y-123172941D01*
X221464726Y-123302617D01*
X221343545Y-123403545D01*
X221281320Y-123439780D01*
X221137430Y-123497757D01*
X220990264Y-123532634D01*
X220823253Y-123552715D01*
X220664305Y-123558150D01*
X220641367Y-123558029D01*
X220486206Y-123550411D01*
X220320472Y-123527192D01*
X220167103Y-123488495D01*
X220026099Y-123434319D01*
X219911986Y-123374783D01*
X219776605Y-123281545D01*
X219666970Y-123182902D01*
X219567411Y-123069420D01*
X219480857Y-122945589D01*
X219410240Y-122815163D01*
X219355560Y-122678143D01*
X219316817Y-122534528D01*
X219296846Y-122407194D01*
X220086148Y-122407194D01*
X220101570Y-122557976D01*
X220117841Y-122623757D01*
X220179571Y-122769671D01*
X220277424Y-122886238D01*
X220293856Y-122899459D01*
X220425308Y-122971426D01*
X220571249Y-122995415D01*
X220582026Y-122995297D01*
X220725488Y-122965190D01*
X220840893Y-122874515D01*
X220867454Y-122834479D01*
X220905922Y-122687325D01*
X220892184Y-122540390D01*
X220876137Y-122477053D01*
X220812817Y-122334645D01*
X220709734Y-122217257D01*
X220683466Y-122197091D01*
X220552874Y-122129211D01*
X220398325Y-122104417D01*
X220258727Y-122130016D01*
X220143335Y-122220921D01*
X220119325Y-122259868D01*
X220086148Y-122407194D01*
X219296846Y-122407194D01*
X219296306Y-122403750D01*
X219291291Y-122256403D01*
X219312464Y-122097716D01*
X219362738Y-121953265D01*
X219442114Y-121823049D01*
X219483972Y-121772766D01*
X219594112Y-121674672D01*
X219741368Y-121595537D01*
X219888925Y-121555145D01*
X220053942Y-121541681D01*
X220129170Y-121544412D01*
X220284210Y-121569063D01*
X220428367Y-121619351D01*
X220547543Y-121683815D01*
X220669317Y-121769405D01*
X220782274Y-121865547D01*
X220773464Y-121835513D01*
X220721772Y-121669069D01*
X220672090Y-121526221D01*
X220608972Y-121372462D01*
X220528018Y-121229539D01*
X220459165Y-121150168D01*
X220331018Y-121059459D01*
X220177773Y-121025840D01*
X220137931Y-121028056D01*
X220003384Y-121088855D01*
X219960308Y-121162025D01*
X219940369Y-121307208D01*
X219105059Y-121214884D01*
X219123271Y-121081712D01*
X219162532Y-120936734D01*
X219226692Y-120800893D01*
X219274677Y-120732231D01*
X219385373Y-120624809D01*
X219512456Y-120548834D01*
X219574677Y-120524137D01*
X219723484Y-120487300D01*
X219885186Y-120468463D01*
X220051011Y-120463105D01*
X220124943Y-120464576D01*
G37*
G36*
X224215108Y-123558150D02*
G01*
X223581297Y-120510000D01*
X222750383Y-120510000D01*
X223165108Y-122505952D01*
X223035541Y-122420912D01*
X222909800Y-122345493D01*
X222774575Y-122272979D01*
X222721807Y-122247299D01*
X222582131Y-122186262D01*
X222440760Y-122132675D01*
X222284551Y-122080363D01*
X222210362Y-122057522D01*
X222356908Y-122760942D01*
X222518337Y-122813707D01*
X222667402Y-122870336D01*
X222804101Y-122930829D01*
X222947957Y-123006288D01*
X223074982Y-123087006D01*
X223205454Y-123188168D01*
X223325758Y-123300413D01*
X223435897Y-123423740D01*
X223535868Y-123558150D01*
X224215108Y-123558150D01*
G37*
D11*
X195346741Y-124699009D02*
X195251503Y-124746628D01*
X195251503Y-124746628D02*
X195203884Y-124794247D01*
X195203884Y-124794247D02*
X195156265Y-124889485D01*
X195156265Y-124889485D02*
X195156265Y-124937104D01*
X195156265Y-124937104D02*
X195203884Y-125032342D01*
X195203884Y-125032342D02*
X195251503Y-125079961D01*
X195251503Y-125079961D02*
X195346741Y-125127580D01*
X195346741Y-125127580D02*
X195537217Y-125127580D01*
X195537217Y-125127580D02*
X195632455Y-125079961D01*
X195632455Y-125079961D02*
X195680074Y-125032342D01*
X195680074Y-125032342D02*
X195727693Y-124937104D01*
X195727693Y-124937104D02*
X195727693Y-124889485D01*
X195727693Y-124889485D02*
X195680074Y-124794247D01*
X195680074Y-124794247D02*
X195632455Y-124746628D01*
X195632455Y-124746628D02*
X195537217Y-124699009D01*
X195537217Y-124699009D02*
X195346741Y-124699009D01*
X195346741Y-124699009D02*
X195251503Y-124651390D01*
X195251503Y-124651390D02*
X195203884Y-124603771D01*
X195203884Y-124603771D02*
X195156265Y-124508533D01*
X195156265Y-124508533D02*
X195156265Y-124318057D01*
X195156265Y-124318057D02*
X195203884Y-124222819D01*
X195203884Y-124222819D02*
X195251503Y-124175200D01*
X195251503Y-124175200D02*
X195346741Y-124127580D01*
X195346741Y-124127580D02*
X195537217Y-124127580D01*
X195537217Y-124127580D02*
X195632455Y-124175200D01*
X195632455Y-124175200D02*
X195680074Y-124222819D01*
X195680074Y-124222819D02*
X195727693Y-124318057D01*
X195727693Y-124318057D02*
X195727693Y-124508533D01*
X195727693Y-124508533D02*
X195680074Y-124603771D01*
X195680074Y-124603771D02*
X195632455Y-124651390D01*
X195632455Y-124651390D02*
X195537217Y-124699009D01*
X196013408Y-125127580D02*
X196346741Y-124127580D01*
X196346741Y-124127580D02*
X196680074Y-125127580D01*
X197441979Y-124794247D02*
X197441979Y-124127580D01*
X197203884Y-125175200D02*
X196965789Y-124460914D01*
X196965789Y-124460914D02*
X197584836Y-124460914D01*
D12*
X202701220Y-118051114D02*
X202567292Y-118122542D01*
X202567292Y-118122542D02*
X202504792Y-118193971D01*
X202504792Y-118193971D02*
X202451220Y-118336828D01*
X202451220Y-118336828D02*
X202460149Y-118408257D01*
X202460149Y-118408257D02*
X202549435Y-118551114D01*
X202549435Y-118551114D02*
X202629792Y-118622542D01*
X202629792Y-118622542D02*
X202781578Y-118693971D01*
X202781578Y-118693971D02*
X203067292Y-118693971D01*
X203067292Y-118693971D02*
X203201220Y-118622542D01*
X203201220Y-118622542D02*
X203263720Y-118551114D01*
X203263720Y-118551114D02*
X203317292Y-118408257D01*
X203317292Y-118408257D02*
X203308363Y-118336828D01*
X203308363Y-118336828D02*
X203219078Y-118193971D01*
X203219078Y-118193971D02*
X203138720Y-118122542D01*
X203138720Y-118122542D02*
X202986935Y-118051114D01*
X202986935Y-118051114D02*
X202701220Y-118051114D01*
X202701220Y-118051114D02*
X202549435Y-117979685D01*
X202549435Y-117979685D02*
X202469078Y-117908257D01*
X202469078Y-117908257D02*
X202379792Y-117765400D01*
X202379792Y-117765400D02*
X202344078Y-117479685D01*
X202344078Y-117479685D02*
X202397649Y-117336828D01*
X202397649Y-117336828D02*
X202460149Y-117265400D01*
X202460149Y-117265400D02*
X202594078Y-117193971D01*
X202594078Y-117193971D02*
X202879792Y-117193971D01*
X202879792Y-117193971D02*
X203031578Y-117265400D01*
X203031578Y-117265400D02*
X203111935Y-117336828D01*
X203111935Y-117336828D02*
X203201220Y-117479685D01*
X203201220Y-117479685D02*
X203236935Y-117765400D01*
X203236935Y-117765400D02*
X203183363Y-117908257D01*
X203183363Y-117908257D02*
X203120863Y-117979685D01*
X203120863Y-117979685D02*
X202986935Y-118051114D01*
X203826220Y-117336828D02*
X203888720Y-117265400D01*
X203888720Y-117265400D02*
X203808363Y-117193971D01*
X203808363Y-117193971D02*
X203745863Y-117265400D01*
X203745863Y-117265400D02*
X203826220Y-117336828D01*
X203826220Y-117336828D02*
X203808363Y-117193971D01*
X205290506Y-118193971D02*
X205165506Y-117193971D01*
X205004792Y-118765400D02*
X204513720Y-117693971D01*
X204513720Y-117693971D02*
X205442292Y-117693971D01*
X205924434Y-118693971D02*
X206236934Y-117193971D01*
X206236934Y-117193971D02*
X206924434Y-118693971D01*
X208478005Y-118551114D02*
X208558362Y-118622542D01*
X208558362Y-118622542D02*
X208710148Y-118693971D01*
X208710148Y-118693971D02*
X209067291Y-118693971D01*
X209067291Y-118693971D02*
X209201219Y-118622542D01*
X209201219Y-118622542D02*
X209263719Y-118551114D01*
X209263719Y-118551114D02*
X209317291Y-118408257D01*
X209317291Y-118408257D02*
X209299434Y-118265400D01*
X209299434Y-118265400D02*
X209201219Y-118051114D01*
X209201219Y-118051114D02*
X208236934Y-117193971D01*
X208236934Y-117193971D02*
X209165505Y-117193971D01*
X210281576Y-118693971D02*
X210424433Y-118693971D01*
X210424433Y-118693971D02*
X210558362Y-118622542D01*
X210558362Y-118622542D02*
X210620862Y-118551114D01*
X210620862Y-118551114D02*
X210674433Y-118408257D01*
X210674433Y-118408257D02*
X210710148Y-118122542D01*
X210710148Y-118122542D02*
X210665505Y-117765400D01*
X210665505Y-117765400D02*
X210558362Y-117479685D01*
X210558362Y-117479685D02*
X210469076Y-117336828D01*
X210469076Y-117336828D02*
X210388719Y-117265400D01*
X210388719Y-117265400D02*
X210236933Y-117193971D01*
X210236933Y-117193971D02*
X210094076Y-117193971D01*
X210094076Y-117193971D02*
X209960148Y-117265400D01*
X209960148Y-117265400D02*
X209897648Y-117336828D01*
X209897648Y-117336828D02*
X209844076Y-117479685D01*
X209844076Y-117479685D02*
X209808362Y-117765400D01*
X209808362Y-117765400D02*
X209853005Y-118122542D01*
X209853005Y-118122542D02*
X209960148Y-118408257D01*
X209960148Y-118408257D02*
X210049433Y-118551114D01*
X210049433Y-118551114D02*
X210129790Y-118622542D01*
X210129790Y-118622542D02*
X210281576Y-118693971D01*
X211219076Y-117622542D02*
X211933361Y-117622542D01*
X211022647Y-117193971D02*
X211710147Y-118693971D01*
X211710147Y-118693971D02*
X212022647Y-117193971D01*
X214263718Y-117979685D02*
X214469075Y-117908257D01*
X214469075Y-117908257D02*
X214531575Y-117836828D01*
X214531575Y-117836828D02*
X214585147Y-117693971D01*
X214585147Y-117693971D02*
X214558361Y-117479685D01*
X214558361Y-117479685D02*
X214469075Y-117336828D01*
X214469075Y-117336828D02*
X214388718Y-117265400D01*
X214388718Y-117265400D02*
X214236932Y-117193971D01*
X214236932Y-117193971D02*
X213665504Y-117193971D01*
X213665504Y-117193971D02*
X213853004Y-118693971D01*
X213853004Y-118693971D02*
X214353004Y-118693971D01*
X214353004Y-118693971D02*
X214486932Y-118622542D01*
X214486932Y-118622542D02*
X214549432Y-118551114D01*
X214549432Y-118551114D02*
X214603004Y-118408257D01*
X214603004Y-118408257D02*
X214585147Y-118265400D01*
X214585147Y-118265400D02*
X214495861Y-118122542D01*
X214495861Y-118122542D02*
X214415504Y-118051114D01*
X214415504Y-118051114D02*
X214263718Y-117979685D01*
X214263718Y-117979685D02*
X213763718Y-117979685D01*
X215165504Y-117193971D02*
X215353004Y-118693971D01*
X215353004Y-118693971D02*
X215719075Y-117622542D01*
X215719075Y-117622542D02*
X216353004Y-118693971D01*
X216353004Y-118693971D02*
X216165504Y-117193971D01*
X216817290Y-117265400D02*
X217022647Y-117193971D01*
X217022647Y-117193971D02*
X217379790Y-117193971D01*
X217379790Y-117193971D02*
X217531576Y-117265400D01*
X217531576Y-117265400D02*
X217611933Y-117336828D01*
X217611933Y-117336828D02*
X217701218Y-117479685D01*
X217701218Y-117479685D02*
X217719076Y-117622542D01*
X217719076Y-117622542D02*
X217665504Y-117765400D01*
X217665504Y-117765400D02*
X217603004Y-117836828D01*
X217603004Y-117836828D02*
X217469076Y-117908257D01*
X217469076Y-117908257D02*
X217192290Y-117979685D01*
X217192290Y-117979685D02*
X217058361Y-118051114D01*
X217058361Y-118051114D02*
X216995861Y-118122542D01*
X216995861Y-118122542D02*
X216942290Y-118265400D01*
X216942290Y-118265400D02*
X216960147Y-118408257D01*
X216960147Y-118408257D02*
X217049433Y-118551114D01*
X217049433Y-118551114D02*
X217129790Y-118622542D01*
X217129790Y-118622542D02*
X217281576Y-118693971D01*
X217281576Y-118693971D02*
X217638718Y-118693971D01*
X217638718Y-118693971D02*
X217844076Y-118622542D01*
X219808361Y-116622542D02*
X219745861Y-116693971D01*
X219745861Y-116693971D02*
X219629789Y-116908257D01*
X219629789Y-116908257D02*
X219576218Y-117051114D01*
X219576218Y-117051114D02*
X219531575Y-117265400D01*
X219531575Y-117265400D02*
X219504789Y-117622542D01*
X219504789Y-117622542D02*
X219540504Y-117908257D01*
X219540504Y-117908257D02*
X219656575Y-118265400D01*
X219656575Y-118265400D02*
X219754789Y-118479685D01*
X219754789Y-118479685D02*
X219844075Y-118622542D01*
X219844075Y-118622542D02*
X220013718Y-118836828D01*
X220013718Y-118836828D02*
X220094075Y-118908257D01*
X221308361Y-117193971D02*
X220897646Y-117908257D01*
X220451218Y-117193971D02*
X220638718Y-118693971D01*
X220638718Y-118693971D02*
X221210146Y-118693971D01*
X221210146Y-118693971D02*
X221344075Y-118622542D01*
X221344075Y-118622542D02*
X221406575Y-118551114D01*
X221406575Y-118551114D02*
X221460146Y-118408257D01*
X221460146Y-118408257D02*
X221433361Y-118193971D01*
X221433361Y-118193971D02*
X221344075Y-118051114D01*
X221344075Y-118051114D02*
X221263718Y-117979685D01*
X221263718Y-117979685D02*
X221111932Y-117908257D01*
X221111932Y-117908257D02*
X220540504Y-117908257D01*
X222049432Y-117979685D02*
X222549432Y-117979685D01*
X222665504Y-117193971D02*
X221951218Y-117193971D01*
X221951218Y-117193971D02*
X222138718Y-118693971D01*
X222138718Y-118693971D02*
X222853004Y-118693971D01*
X223281575Y-118693971D02*
X223594075Y-117193971D01*
X223594075Y-117193971D02*
X224281575Y-118693971D01*
X224692289Y-118551114D02*
X224772646Y-118622542D01*
X224772646Y-118622542D02*
X224924432Y-118693971D01*
X224924432Y-118693971D02*
X225281575Y-118693971D01*
X225281575Y-118693971D02*
X225415503Y-118622542D01*
X225415503Y-118622542D02*
X225478003Y-118551114D01*
X225478003Y-118551114D02*
X225531575Y-118408257D01*
X225531575Y-118408257D02*
X225513718Y-118265400D01*
X225513718Y-118265400D02*
X225415503Y-118051114D01*
X225415503Y-118051114D02*
X224451218Y-117193971D01*
X224451218Y-117193971D02*
X225379789Y-117193971D01*
X226040503Y-117336828D02*
X226103003Y-117265400D01*
X226103003Y-117265400D02*
X226022646Y-117193971D01*
X226022646Y-117193971D02*
X225960146Y-117265400D01*
X225960146Y-117265400D02*
X226040503Y-117336828D01*
X226040503Y-117336828D02*
X226022646Y-117193971D01*
X227522646Y-117193971D02*
X226665503Y-117193971D01*
X227094075Y-117193971D02*
X227281575Y-118693971D01*
X227281575Y-118693971D02*
X227111932Y-118479685D01*
X227111932Y-118479685D02*
X226951218Y-118336828D01*
X226951218Y-118336828D02*
X226799432Y-118265400D01*
X227951217Y-116622542D02*
X228031574Y-116693971D01*
X228031574Y-116693971D02*
X228201217Y-116908257D01*
X228201217Y-116908257D02*
X228290503Y-117051114D01*
X228290503Y-117051114D02*
X228388717Y-117265400D01*
X228388717Y-117265400D02*
X228504789Y-117622542D01*
X228504789Y-117622542D02*
X228540503Y-117908257D01*
X228540503Y-117908257D02*
X228513717Y-118265400D01*
X228513717Y-118265400D02*
X228469074Y-118479685D01*
X228469074Y-118479685D02*
X228415503Y-118622542D01*
X228415503Y-118622542D02*
X228299431Y-118836828D01*
X228299431Y-118836828D02*
X228236931Y-118908257D01*
D11*
X238160744Y-116759268D02*
X238160744Y-116092601D01*
X237922649Y-117140221D02*
X237684554Y-116425935D01*
X237684554Y-116425935D02*
X238303601Y-116425935D01*
X238541697Y-117092601D02*
X238875030Y-116092601D01*
X238875030Y-116092601D02*
X239208363Y-117092601D01*
X239494078Y-116997363D02*
X239541697Y-117044982D01*
X239541697Y-117044982D02*
X239636935Y-117092601D01*
X239636935Y-117092601D02*
X239875030Y-117092601D01*
X239875030Y-117092601D02*
X239970268Y-117044982D01*
X239970268Y-117044982D02*
X240017887Y-116997363D01*
X240017887Y-116997363D02*
X240065506Y-116902125D01*
X240065506Y-116902125D02*
X240065506Y-116806887D01*
X240065506Y-116806887D02*
X240017887Y-116664030D01*
X240017887Y-116664030D02*
X239446459Y-116092601D01*
X239446459Y-116092601D02*
X240065506Y-116092601D01*
D10*
X215954819Y-54745833D02*
X215478628Y-54412500D01*
X215954819Y-54174405D02*
X214954819Y-54174405D01*
X214954819Y-54174405D02*
X214954819Y-54555357D01*
X214954819Y-54555357D02*
X215002438Y-54650595D01*
X215002438Y-54650595D02*
X215050057Y-54698214D01*
X215050057Y-54698214D02*
X215145295Y-54745833D01*
X215145295Y-54745833D02*
X215288152Y-54745833D01*
X215288152Y-54745833D02*
X215383390Y-54698214D01*
X215383390Y-54698214D02*
X215431009Y-54650595D01*
X215431009Y-54650595D02*
X215478628Y-54555357D01*
X215478628Y-54555357D02*
X215478628Y-54174405D01*
X215383390Y-55317262D02*
X215335771Y-55222024D01*
X215335771Y-55222024D02*
X215288152Y-55174405D01*
X215288152Y-55174405D02*
X215192914Y-55126786D01*
X215192914Y-55126786D02*
X215145295Y-55126786D01*
X215145295Y-55126786D02*
X215050057Y-55174405D01*
X215050057Y-55174405D02*
X215002438Y-55222024D01*
X215002438Y-55222024D02*
X214954819Y-55317262D01*
X214954819Y-55317262D02*
X214954819Y-55507738D01*
X214954819Y-55507738D02*
X215002438Y-55602976D01*
X215002438Y-55602976D02*
X215050057Y-55650595D01*
X215050057Y-55650595D02*
X215145295Y-55698214D01*
X215145295Y-55698214D02*
X215192914Y-55698214D01*
X215192914Y-55698214D02*
X215288152Y-55650595D01*
X215288152Y-55650595D02*
X215335771Y-55602976D01*
X215335771Y-55602976D02*
X215383390Y-55507738D01*
X215383390Y-55507738D02*
X215383390Y-55317262D01*
X215383390Y-55317262D02*
X215431009Y-55222024D01*
X215431009Y-55222024D02*
X215478628Y-55174405D01*
X215478628Y-55174405D02*
X215573866Y-55126786D01*
X215573866Y-55126786D02*
X215764342Y-55126786D01*
X215764342Y-55126786D02*
X215859580Y-55174405D01*
X215859580Y-55174405D02*
X215907200Y-55222024D01*
X215907200Y-55222024D02*
X215954819Y-55317262D01*
X215954819Y-55317262D02*
X215954819Y-55507738D01*
X215954819Y-55507738D02*
X215907200Y-55602976D01*
X215907200Y-55602976D02*
X215859580Y-55650595D01*
X215859580Y-55650595D02*
X215764342Y-55698214D01*
X215764342Y-55698214D02*
X215573866Y-55698214D01*
X215573866Y-55698214D02*
X215478628Y-55650595D01*
X215478628Y-55650595D02*
X215431009Y-55602976D01*
X215431009Y-55602976D02*
X215383390Y-55507738D01*
X222079166Y-51937319D02*
X222412499Y-51461128D01*
X222650594Y-51937319D02*
X222650594Y-50937319D01*
X222650594Y-50937319D02*
X222269642Y-50937319D01*
X222269642Y-50937319D02*
X222174404Y-50984938D01*
X222174404Y-50984938D02*
X222126785Y-51032557D01*
X222126785Y-51032557D02*
X222079166Y-51127795D01*
X222079166Y-51127795D02*
X222079166Y-51270652D01*
X222079166Y-51270652D02*
X222126785Y-51365890D01*
X222126785Y-51365890D02*
X222174404Y-51413509D01*
X222174404Y-51413509D02*
X222269642Y-51461128D01*
X222269642Y-51461128D02*
X222650594Y-51461128D01*
X221174404Y-50937319D02*
X221650594Y-50937319D01*
X221650594Y-50937319D02*
X221698213Y-51413509D01*
X221698213Y-51413509D02*
X221650594Y-51365890D01*
X221650594Y-51365890D02*
X221555356Y-51318271D01*
X221555356Y-51318271D02*
X221317261Y-51318271D01*
X221317261Y-51318271D02*
X221222023Y-51365890D01*
X221222023Y-51365890D02*
X221174404Y-51413509D01*
X221174404Y-51413509D02*
X221126785Y-51508747D01*
X221126785Y-51508747D02*
X221126785Y-51746842D01*
X221126785Y-51746842D02*
X221174404Y-51842080D01*
X221174404Y-51842080D02*
X221222023Y-51889700D01*
X221222023Y-51889700D02*
X221317261Y-51937319D01*
X221317261Y-51937319D02*
X221555356Y-51937319D01*
X221555356Y-51937319D02*
X221650594Y-51889700D01*
X221650594Y-51889700D02*
X221698213Y-51842080D01*
X222666666Y-59937319D02*
X222999999Y-59461128D01*
X223238094Y-59937319D02*
X223238094Y-58937319D01*
X223238094Y-58937319D02*
X222857142Y-58937319D01*
X222857142Y-58937319D02*
X222761904Y-58984938D01*
X222761904Y-58984938D02*
X222714285Y-59032557D01*
X222714285Y-59032557D02*
X222666666Y-59127795D01*
X222666666Y-59127795D02*
X222666666Y-59270652D01*
X222666666Y-59270652D02*
X222714285Y-59365890D01*
X222714285Y-59365890D02*
X222761904Y-59413509D01*
X222761904Y-59413509D02*
X222857142Y-59461128D01*
X222857142Y-59461128D02*
X223238094Y-59461128D01*
X222190475Y-59937319D02*
X221999999Y-59937319D01*
X221999999Y-59937319D02*
X221904761Y-59889700D01*
X221904761Y-59889700D02*
X221857142Y-59842080D01*
X221857142Y-59842080D02*
X221761904Y-59699223D01*
X221761904Y-59699223D02*
X221714285Y-59508747D01*
X221714285Y-59508747D02*
X221714285Y-59127795D01*
X221714285Y-59127795D02*
X221761904Y-59032557D01*
X221761904Y-59032557D02*
X221809523Y-58984938D01*
X221809523Y-58984938D02*
X221904761Y-58937319D01*
X221904761Y-58937319D02*
X222095237Y-58937319D01*
X222095237Y-58937319D02*
X222190475Y-58984938D01*
X222190475Y-58984938D02*
X222238094Y-59032557D01*
X222238094Y-59032557D02*
X222285713Y-59127795D01*
X222285713Y-59127795D02*
X222285713Y-59365890D01*
X222285713Y-59365890D02*
X222238094Y-59461128D01*
X222238094Y-59461128D02*
X222190475Y-59508747D01*
X222190475Y-59508747D02*
X222095237Y-59556366D01*
X222095237Y-59556366D02*
X221904761Y-59556366D01*
X221904761Y-59556366D02*
X221809523Y-59508747D01*
X221809523Y-59508747D02*
X221761904Y-59461128D01*
X221761904Y-59461128D02*
X221714285Y-59365890D01*
D13*
G04 #@! TO.C,R6*
X213201836Y-58166940D02*
X213201836Y-57657492D01*
X214246836Y-58166940D02*
X214246836Y-57657492D01*
G04 #@! TO.C,R4*
X222477500Y-56254724D02*
X222477500Y-55745276D01*
X223522500Y-56254724D02*
X223522500Y-55745276D01*
G04 #@! TO.C,R7*
X215754724Y-60390000D02*
X215245276Y-60390000D01*
X215754724Y-61435000D02*
X215245276Y-61435000D01*
D11*
G04 #@! TO.C,U3*
X192900000Y-110000000D02*
X240900000Y-110000000D01*
X192900000Y-130000000D02*
X192900000Y-110000000D01*
X200900000Y-111000000D02*
X204900000Y-115000000D01*
X200900000Y-129000000D02*
X204900000Y-125000000D01*
X202900000Y-115000000D02*
X204900000Y-115000000D01*
X202900000Y-125000000D02*
X204900000Y-125000000D01*
X204900000Y-113000000D02*
X204900000Y-115000000D01*
X204900000Y-127000000D02*
X204900000Y-125000000D01*
X225900000Y-113000000D02*
X225900000Y-115000000D01*
X225900000Y-127000000D02*
X225900000Y-125000000D01*
X227900000Y-115000000D02*
X225900000Y-115000000D01*
X227900000Y-125000000D02*
X225900000Y-125000000D01*
X229900000Y-111000000D02*
X225900000Y-115000000D01*
X229900000Y-129000000D02*
X225900000Y-125000000D01*
X232900000Y-114000000D02*
X234900000Y-114000000D01*
X232900000Y-126000000D02*
X234900000Y-126000000D01*
X233900000Y-125000000D02*
X233900000Y-127000000D01*
X233900000Y-126000000D02*
X233900000Y-125000000D01*
X240900000Y-110000000D02*
X240900000Y-130000000D01*
X240900000Y-130000000D02*
X192900000Y-130000000D01*
X234900000Y-114000000D02*
G75*
G02*
X232900000Y-114000000I-1000000J0D01*
G01*
X232900000Y-114000000D02*
G75*
G02*
X234900000Y-114000000I1000000J0D01*
G01*
X234900000Y-126000000D02*
G75*
G02*
X232900000Y-126000000I-1000000J0D01*
G01*
X232900000Y-126000000D02*
G75*
G02*
X234900000Y-126000000I1000000J0D01*
G01*
D13*
G04 #@! TO.C,R8*
X214977500Y-58167224D02*
X214977500Y-57657776D01*
X216022500Y-58167224D02*
X216022500Y-57657776D01*
G04 #@! TO.C,R5*
X221657776Y-52390000D02*
X222167224Y-52390000D01*
X221657776Y-53435000D02*
X222167224Y-53435000D01*
G04 #@! TO.C,R9*
X222245276Y-60390000D02*
X222754724Y-60390000D01*
X222245276Y-61435000D02*
X222754724Y-61435000D01*
G04 #@! TD*
%LPC*%
D14*
G04 #@! TO.C,J20*
X243020000Y-86310000D03*
D15*
X243020000Y-83770000D03*
X243020000Y-81230000D03*
X243020000Y-78690000D03*
G04 #@! TD*
D14*
G04 #@! TO.C,J1*
X243020000Y-109810000D03*
D15*
X243020000Y-107270000D03*
X243020000Y-104730000D03*
X243020000Y-102190000D03*
G04 #@! TD*
D16*
G04 #@! TO.C,J11*
X232275000Y-54062500D03*
D17*
X229735000Y-54062500D03*
G04 #@! TD*
D18*
G04 #@! TO.C,C2*
X223900000Y-132788614D03*
X225500000Y-132117677D03*
D19*
X225500000Y-129617677D03*
X227100000Y-128946740D03*
G04 #@! TD*
D20*
G04 #@! TO.C,J4*
X191000000Y-112960000D03*
D15*
X191000000Y-115500000D03*
G04 #@! TD*
D20*
G04 #@! TO.C,J19*
X191000000Y-85920000D03*
D15*
X191000000Y-88460000D03*
X191000000Y-91000000D03*
X191000000Y-93540000D03*
G04 #@! TD*
D16*
G04 #@! TO.C,J15*
X204775000Y-86000000D03*
D17*
X202235000Y-86000000D03*
G04 #@! TD*
D21*
G04 #@! TO.C,Q1*
X206543635Y-101499693D03*
D22*
X204003635Y-104039693D03*
X201463635Y-101499693D03*
G04 #@! TD*
D23*
G04 #@! TO.C,D1*
X225500000Y-101310000D03*
D24*
X225500000Y-93690000D03*
G04 #@! TD*
D25*
G04 #@! TO.C,U7*
X212228589Y-118708785D03*
D26*
X209688589Y-135368785D03*
D27*
X212228589Y-135368785D03*
X214768589Y-135368785D03*
G04 #@! TD*
D16*
G04 #@! TO.C,J7*
X232275000Y-57912500D03*
D17*
X229735000Y-57912500D03*
G04 #@! TD*
D18*
G04 #@! TO.C,C17*
X212900000Y-89288614D03*
X214500000Y-88617677D03*
D19*
X214500000Y-86117677D03*
X216100000Y-85446740D03*
G04 #@! TD*
D28*
G04 #@! TO.C,D11*
X243000000Y-114460000D03*
D29*
X243000000Y-117000000D03*
G04 #@! TD*
D16*
G04 #@! TO.C,J13*
X205275000Y-108000000D03*
D17*
X202735000Y-108000000D03*
G04 #@! TD*
D23*
G04 #@! TO.C,D8*
X232400000Y-106381827D03*
D24*
X232400000Y-98761827D03*
G04 #@! TD*
D23*
G04 #@! TO.C,D3*
X236000000Y-92535000D03*
D24*
X236000000Y-84915000D03*
G04 #@! TD*
D28*
G04 #@! TO.C,D10*
X243000000Y-123185000D03*
D29*
X243000000Y-125725000D03*
G04 #@! TD*
D14*
G04 #@! TO.C,J2*
X243020000Y-97810000D03*
D15*
X243020000Y-95270000D03*
X243020000Y-92730000D03*
X243020000Y-90190000D03*
G04 #@! TD*
D21*
G04 #@! TO.C,Q2*
X206486965Y-92397963D03*
D22*
X203946965Y-94937963D03*
X201406965Y-92397963D03*
G04 #@! TD*
D28*
G04 #@! TO.C,D9*
X243013249Y-132037500D03*
D29*
X243013249Y-134577500D03*
G04 #@! TD*
D30*
G04 #@! TO.C,J5*
X205580000Y-69500000D03*
D31*
X203040000Y-69500000D03*
X200500000Y-69500000D03*
X197960000Y-69500000D03*
G04 #@! TD*
D18*
G04 #@! TO.C,C4*
X199900000Y-133288614D03*
X201500000Y-132617677D03*
D19*
X201500000Y-130117677D03*
X203100000Y-129446740D03*
G04 #@! TD*
D20*
G04 #@! TO.C,J21*
X191000000Y-98460000D03*
D15*
X191000000Y-101000000D03*
X191000000Y-103540000D03*
X191000000Y-106080000D03*
G04 #@! TD*
D23*
G04 #@! TO.C,D6*
X229000000Y-109620000D03*
D24*
X229000000Y-102000000D03*
G04 #@! TD*
D20*
G04 #@! TO.C,J12*
X190980000Y-49960000D03*
D15*
X190980000Y-52500000D03*
X190980000Y-55040000D03*
X190980000Y-57580000D03*
G04 #@! TD*
D32*
G04 #@! TO.C,SW2*
X236250000Y-58750000D03*
X242750000Y-58750000D03*
X236250000Y-63250000D03*
X242750000Y-63250000D03*
G04 #@! TD*
D20*
G04 #@! TO.C,J16*
X190970395Y-74290910D03*
D15*
X190970395Y-76830910D03*
X190970395Y-79370910D03*
X190970395Y-81910910D03*
G04 #@! TD*
D30*
G04 #@! TO.C,J8*
X244162160Y-51480000D03*
D31*
X241622160Y-51480000D03*
X239082160Y-51480000D03*
X236542160Y-51480000D03*
G04 #@! TD*
D33*
G04 #@! TO.C,H1*
X220500000Y-107000000D03*
G04 #@! TD*
D20*
G04 #@! TO.C,J3*
X191000000Y-120460000D03*
D15*
X191000000Y-123000000D03*
G04 #@! TD*
D33*
G04 #@! TO.C,H2*
X222500000Y-90000000D03*
G04 #@! TD*
D32*
G04 #@! TO.C,SW1*
X199250000Y-56250000D03*
X199250000Y-49750000D03*
X203750000Y-56250000D03*
X203750000Y-49750000D03*
G04 #@! TD*
D23*
G04 #@! TO.C,D4*
X232449935Y-95726735D03*
D24*
X232449935Y-88106735D03*
G04 #@! TD*
D18*
G04 #@! TO.C,U2*
X219025000Y-79325000D03*
D34*
X221565000Y-79325000D03*
X224105000Y-79325000D03*
X226645000Y-79325000D03*
X229185000Y-79325000D03*
X231725000Y-79325000D03*
X234265000Y-79325000D03*
X236805000Y-79325000D03*
X236805000Y-69165000D03*
X234265000Y-69165000D03*
X231725000Y-69165000D03*
X229185000Y-69165000D03*
X226645000Y-69165000D03*
X224105000Y-69165000D03*
X221565000Y-69165000D03*
X219025000Y-69165000D03*
G04 #@! TD*
D23*
G04 #@! TO.C,D5*
X225500000Y-111810000D03*
D24*
X225500000Y-104190000D03*
G04 #@! TD*
D16*
G04 #@! TO.C,J18*
X198093709Y-92675000D03*
D17*
X198093709Y-90135000D03*
G04 #@! TD*
D16*
G04 #@! TO.C,J17*
X198260579Y-99586636D03*
D17*
X198260579Y-102126636D03*
G04 #@! TD*
D20*
G04 #@! TO.C,J6*
X191000000Y-62380000D03*
D15*
X191000000Y-64920000D03*
X191000000Y-67460000D03*
X191000000Y-70000000D03*
G04 #@! TD*
D35*
G04 #@! TO.C,L2*
X215500000Y-124500000D03*
X215500000Y-129500000D03*
G04 #@! TD*
D14*
G04 #@! TO.C,J9*
X243040000Y-74540000D03*
D15*
X243040000Y-72000000D03*
X243040000Y-69460000D03*
X243040000Y-66920000D03*
G04 #@! TD*
D14*
G04 #@! TO.C,J14*
X191020000Y-133250000D03*
D15*
X191020000Y-130710000D03*
G04 #@! TD*
D23*
G04 #@! TO.C,D2*
X229000000Y-98810000D03*
D24*
X229000000Y-91190000D03*
G04 #@! TD*
D30*
G04 #@! TO.C,J10*
X205500000Y-79500000D03*
D31*
X202960000Y-79500000D03*
X200420000Y-79500000D03*
X197880000Y-79500000D03*
G04 #@! TD*
D18*
G04 #@! TO.C,C18*
X214100000Y-107829063D03*
X212500000Y-108500000D03*
D19*
X212500000Y-111000000D03*
X210900000Y-111670937D03*
G04 #@! TD*
D23*
G04 #@! TO.C,D7*
X236000000Y-103345000D03*
D24*
X236000000Y-95725000D03*
G04 #@! TD*
D36*
G04 #@! TO.C,R6*
X213724336Y-56999716D03*
X213724336Y-58824716D03*
G04 #@! TD*
G04 #@! TO.C,R4*
X223000000Y-55087500D03*
X223000000Y-56912500D03*
G04 #@! TD*
D37*
G04 #@! TO.C,R7*
X214587500Y-60912500D03*
X216412500Y-60912500D03*
G04 #@! TD*
D38*
G04 #@! TO.C,U3*
X233900000Y-123200000D03*
X233900000Y-116800000D03*
D39*
X238900000Y-120000000D03*
D40*
X196000000Y-127900000D03*
X196000000Y-112100000D03*
G04 #@! TD*
D36*
G04 #@! TO.C,R8*
X215500000Y-57000000D03*
X215500000Y-58825000D03*
G04 #@! TD*
D41*
G04 #@! TO.C,R5*
X222825000Y-52912500D03*
X221000000Y-52912500D03*
G04 #@! TD*
G04 #@! TO.C,R9*
X223412500Y-60912500D03*
X221587500Y-60912500D03*
G04 #@! TD*
%LPD*%
M02*
