M48
; DRILL file {KiCad 8.0.0} date 2024-03-12T14:17:27+0100
; FORMAT={-:-/ absolute / metric / decimal}
; #@! TF.CreationDate,2024-03-12T14:17:27+01:00
; #@! TF.GenerationSoftware,Kicad,Pcbnew,8.0.0
; #@! TF.FileFunction,Plated,1,2,PTH
FMAT,2
METRIC
; #@! TA.AperFunction,Plated,PTH,ViaDrill
T1C0.300
; #@! TA.AperFunction,Plated,PTH,ComponentDrill
T2C0.800
; #@! TA.AperFunction,Plated,PTH,ComponentDrill
T3C0.900
; #@! TA.AperFunction,Plated,PTH,ComponentDrill
T4C1.000
; #@! TA.AperFunction,Plated,PTH,ComponentDrill
T5C1.100
; #@! TA.AperFunction,Plated,PTH,ComponentDrill
T6C1.190
; #@! TA.AperFunction,Plated,PTH,ComponentDrill
T7C1.300
%
G90
G05
T1
X187.5Y-108.5
X188.5Y-68.5
X188.5Y-69.5
X188.5Y-70.5
X189.0Y-81.0
X189.0Y-109.0
X189.5Y-69.0
X190.0Y-59.5
X190.5Y-108.5
X191.0Y-59.5
X192.0Y-59.5
X192.0Y-109.0
X192.5Y-94.5
X193.0Y-70.5
X193.5Y-108.5
X195.0Y-109.0
X195.435Y-73.86
X195.5Y-76.0
X196.5Y-108.5
X197.5Y-87.0
X198.5Y-88.0
X199.5Y-87.0
X200.5Y-94.0
X201.184Y-97.487
X201.5Y-95.0
X202.0Y-63.95
X203.5Y-97.0
X204.5Y-89.0
X204.5Y-90.0
X205.0Y-116.497
X205.5Y-89.5
X205.5Y-94.0
X205.5Y-97.0
X205.727Y-95.114
X206.5Y-64.1
X206.5Y-94.0
X207.0Y-96.5
X207.0Y-128.5
X207.307Y-89.335
X207.5Y-84.5
X208.0Y-66.0
X208.0Y-68.0
X208.5Y-122.0
X209.622Y-100.215
X210.0Y-96.5
X211.0Y-97.5
X211.5Y-65.5
X211.5Y-127.5
X212.0Y-71.298
X212.0Y-72.102
X212.0Y-73.0
X212.0Y-74.0
X212.0Y-74.9
X212.0Y-76.0
X212.5Y-58.0
X212.5Y-65.5
X212.5Y-129.0
X213.0Y-60.912
X213.0Y-126.0
X213.0Y-128.0
X213.5Y-66.5
X213.5Y-67.5
X214.0Y-53.0
X214.0Y-127.0
X216.0Y-67.5
X217.0Y-57.0
X217.0Y-67.5
X217.5Y-96.0
X217.5Y-98.0
X217.5Y-100.0
X218.0Y-67.5
X218.0Y-71.0
X218.5Y-72.0
X218.5Y-95.0
X218.5Y-97.0
X218.5Y-99.0
X219.0Y-71.0
X219.5Y-72.0
X220.0Y-58.5
X221.0Y-62.5
X223.5Y-59.0
X224.071Y-52.886
X224.202Y-55.058
X224.5Y-61.0
X226.0Y-74.0
X227.0Y-74.3
X228.0Y-72.5
X228.4Y-74.9
X228.5Y-66.5
X229.5Y-66.5
X229.5Y-73.0
X230.0Y-63.5
X230.5Y-66.5
X231.483Y-60.825
X234.5Y-81.0
X235.5Y-81.0
X236.5Y-53.5
X237.0Y-81.0
X237.5Y-54.0
X238.0Y-81.0
X238.5Y-53.5
X240.5Y-88.5
X241.0Y-76.5
X241.5Y-88.5
X242.0Y-76.5
X242.5Y-88.5
X243.5Y-88.5
X244.0Y-76.5
X244.5Y-88.5
X245.0Y-76.5
X247.0Y-116.0
X247.0Y-118.0
X247.0Y-125.0
X247.0Y-127.0
X247.0Y-134.0
X247.0Y-136.0
X247.5Y-115.0
X247.5Y-117.0
X247.5Y-124.0
X247.5Y-126.0
X247.5Y-133.0
X247.5Y-135.0
X247.8Y-87.3
X247.803Y-65.033
X247.829Y-88.057
X247.829Y-88.824
X247.829Y-89.592
X247.832Y-65.79
X247.832Y-66.557
X247.832Y-67.325
T2
X199.9Y-133.289
X201.407Y-92.398
X201.464Y-101.5
X201.5Y-130.118
X201.5Y-132.618
X203.1Y-129.447
X203.947Y-94.938
X204.004Y-104.04
X206.487Y-92.398
X206.544Y-101.5
X210.9Y-111.671
X212.5Y-108.5
X212.5Y-111.0
X212.9Y-89.289
X214.1Y-107.829
X214.5Y-86.118
X214.5Y-88.618
X216.1Y-85.447
X219.025Y-69.165
X219.025Y-79.325
X221.565Y-69.165
X221.565Y-79.325
X223.9Y-132.789
X224.105Y-69.165
X224.105Y-79.325
X225.5Y-129.618
X225.5Y-132.118
X226.645Y-69.165
X226.645Y-79.325
X227.1Y-128.947
X229.185Y-69.165
X229.185Y-79.325
X231.725Y-69.165
X231.725Y-79.325
X234.265Y-69.165
X234.265Y-79.325
X236.805Y-69.165
X236.805Y-79.325
T3
X243.0Y-114.46
X243.0Y-117.0
X243.0Y-123.185
X243.0Y-125.725
X243.013Y-132.037
X243.013Y-134.577
T4
X198.094Y-90.135
X198.094Y-92.675
X198.261Y-99.587
X198.261Y-102.127
X202.235Y-86.0
X202.735Y-108.0
X204.775Y-86.0
X205.275Y-108.0
X229.735Y-54.062
X229.735Y-57.912
X232.275Y-54.062
X232.275Y-57.912
T5
X199.25Y-49.75
X199.25Y-56.25
X203.75Y-49.75
X203.75Y-56.25
X209.689Y-135.369
X212.229Y-135.369
X214.769Y-135.369
X225.5Y-93.69
X225.5Y-101.31
X225.5Y-104.19
X225.5Y-111.81
X229.0Y-91.19
X229.0Y-98.81
X229.0Y-102.0
X229.0Y-109.62
X232.4Y-98.762
X232.4Y-106.382
X232.45Y-88.107
X232.45Y-95.727
X236.0Y-84.915
X236.0Y-92.535
X236.0Y-95.725
X236.0Y-103.345
X236.25Y-58.75
X236.25Y-63.25
X242.75Y-58.75
X242.75Y-63.25
T6
X190.97Y-74.291
X190.97Y-76.831
X190.97Y-79.371
X190.97Y-81.911
X190.98Y-49.96
X190.98Y-52.5
X190.98Y-55.04
X190.98Y-57.58
X191.0Y-62.38
X191.0Y-64.92
X191.0Y-67.46
X191.0Y-70.0
X191.0Y-85.92
X191.0Y-88.46
X191.0Y-91.0
X191.0Y-93.54
X191.0Y-98.46
X191.0Y-101.0
X191.0Y-103.54
X191.0Y-106.08
X191.0Y-112.96
X191.0Y-115.5
X191.0Y-120.46
X191.0Y-123.0
X191.02Y-130.71
X191.02Y-133.25
X197.88Y-79.5
X197.96Y-69.5
X200.42Y-79.5
X200.5Y-69.5
X202.96Y-79.5
X203.04Y-69.5
X205.5Y-79.5
X205.58Y-69.5
X236.542Y-51.48
X239.082Y-51.48
X241.622Y-51.48
X243.02Y-78.69
X243.02Y-81.23
X243.02Y-83.77
X243.02Y-86.31
X243.02Y-90.19
X243.02Y-92.73
X243.02Y-95.27
X243.02Y-97.81
X243.02Y-102.19
X243.02Y-104.73
X243.02Y-107.27
X243.02Y-109.81
X243.04Y-66.92
X243.04Y-69.46
X243.04Y-72.0
X243.04Y-74.54
X244.162Y-51.48
T7
X215.5Y-124.5
X215.5Y-129.5
M30
