G04 #@! TF.GenerationSoftware,KiCad,Pcbnew,8.0.0*
G04 #@! TF.CreationDate,2024-03-12T14:16:29+01:00*
G04 #@! TF.ProjectId,Samochodzik,53616d6f-6368-46f6-947a-696b2e6b6963,rev?*
G04 #@! TF.SameCoordinates,Original*
G04 #@! TF.FileFunction,Soldermask,Bot*
G04 #@! TF.FilePolarity,Negative*
%FSLAX46Y46*%
G04 Gerber Fmt 4.6, Leading zero omitted, Abs format (unit mm)*
G04 Created by KiCad (PCBNEW 8.0.0) date 2024-03-12 14:16:29*
%MOMM*%
%LPD*%
G01*
G04 APERTURE LIST*
G04 Aperture macros list*
%AMRoundRect*
0 Rectangle with rounded corners*
0 $1 Rounding radius*
0 $2 $3 $4 $5 $6 $7 $8 $9 X,Y pos of 4 corners*
0 Add a 4 corners polygon primitive as box body*
4,1,4,$2,$3,$4,$5,$6,$7,$8,$9,$2,$3,0*
0 Add four circle primitives for the rounded corners*
1,1,$1+$1,$2,$3*
1,1,$1+$1,$4,$5*
1,1,$1+$1,$6,$7*
1,1,$1+$1,$8,$9*
0 Add four rect primitives between the rounded corners*
20,1,$1+$1,$2,$3,$4,$5,0*
20,1,$1+$1,$4,$5,$6,$7,0*
20,1,$1+$1,$6,$7,$8,$9,0*
20,1,$1+$1,$8,$9,$2,$3,0*%
G04 Aperture macros list end*
%ADD10RoundRect,0.250000X0.845000X-0.620000X0.845000X0.620000X-0.845000X0.620000X-0.845000X-0.620000X0*%
%ADD11O,2.190000X1.740000*%
%ADD12R,1.700000X1.700000*%
%ADD13O,1.700000X1.700000*%
%ADD14R,1.600000X1.600000*%
%ADD15C,1.600000*%
%ADD16RoundRect,0.250000X-0.845000X0.620000X-0.845000X-0.620000X0.845000X-0.620000X0.845000X0.620000X0*%
%ADD17R,1.500000X1.500000*%
%ADD18C,1.500000*%
%ADD19R,2.200000X2.200000*%
%ADD20O,2.200000X2.200000*%
%ADD21O,3.500000X3.500000*%
%ADD22R,1.905000X2.000000*%
%ADD23O,1.905000X2.000000*%
%ADD24R,1.800000X1.800000*%
%ADD25C,1.800000*%
%ADD26RoundRect,0.250000X0.620000X0.845000X-0.620000X0.845000X-0.620000X-0.845000X0.620000X-0.845000X0*%
%ADD27O,1.740000X2.190000*%
%ADD28C,2.000000*%
%ADD29C,3.200000*%
%ADD30O,1.600000X1.600000*%
%ADD31C,2.600000*%
%ADD32RoundRect,0.237500X-0.237500X0.250000X-0.237500X-0.250000X0.237500X-0.250000X0.237500X0.250000X0*%
%ADD33RoundRect,0.237500X-0.250000X-0.237500X0.250000X-0.237500X0.250000X0.237500X-0.250000X0.237500X0*%
%ADD34RoundRect,0.687500X1.437500X0.687500X-1.437500X0.687500X-1.437500X-0.687500X1.437500X-0.687500X0*%
%ADD35RoundRect,0.687500X-0.687500X1.437500X-0.687500X-1.437500X0.687500X-1.437500X0.687500X1.437500X0*%
%ADD36RoundRect,1.000000X2.000000X1.000000X-2.000000X1.000000X-2.000000X-1.000000X2.000000X-1.000000X0*%
%ADD37RoundRect,0.237500X0.250000X0.237500X-0.250000X0.237500X-0.250000X-0.237500X0.250000X-0.237500X0*%
G04 APERTURE END LIST*
D10*
G04 #@! TO.C,J20*
X243020000Y-86310000D03*
D11*
X243020000Y-83770000D03*
X243020000Y-81230000D03*
X243020000Y-78690000D03*
G04 #@! TD*
D10*
G04 #@! TO.C,J1*
X243020000Y-109810000D03*
D11*
X243020000Y-107270000D03*
X243020000Y-104730000D03*
X243020000Y-102190000D03*
G04 #@! TD*
D12*
G04 #@! TO.C,J11*
X232275000Y-54062500D03*
D13*
X229735000Y-54062500D03*
G04 #@! TD*
D14*
G04 #@! TO.C,C2*
X223900000Y-132788614D03*
X225500000Y-132117677D03*
D15*
X225500000Y-129617677D03*
X227100000Y-128946740D03*
G04 #@! TD*
D16*
G04 #@! TO.C,J4*
X191000000Y-112960000D03*
D11*
X191000000Y-115500000D03*
G04 #@! TD*
D16*
G04 #@! TO.C,J19*
X191000000Y-85920000D03*
D11*
X191000000Y-88460000D03*
X191000000Y-91000000D03*
X191000000Y-93540000D03*
G04 #@! TD*
D12*
G04 #@! TO.C,J15*
X204775000Y-86000000D03*
D13*
X202235000Y-86000000D03*
G04 #@! TD*
D17*
G04 #@! TO.C,Q1*
X206543635Y-101499693D03*
D18*
X204003635Y-104039693D03*
X201463635Y-101499693D03*
G04 #@! TD*
D19*
G04 #@! TO.C,D1*
X225500000Y-101310000D03*
D20*
X225500000Y-93690000D03*
G04 #@! TD*
D21*
G04 #@! TO.C,U7*
X212228589Y-118708785D03*
D22*
X209688589Y-135368785D03*
D23*
X212228589Y-135368785D03*
X214768589Y-135368785D03*
G04 #@! TD*
D12*
G04 #@! TO.C,J7*
X232275000Y-57912500D03*
D13*
X229735000Y-57912500D03*
G04 #@! TD*
D14*
G04 #@! TO.C,C17*
X212900000Y-89288614D03*
X214500000Y-88617677D03*
D15*
X214500000Y-86117677D03*
X216100000Y-85446740D03*
G04 #@! TD*
D24*
G04 #@! TO.C,D11*
X243000000Y-114460000D03*
D25*
X243000000Y-117000000D03*
G04 #@! TD*
D12*
G04 #@! TO.C,J13*
X205275000Y-108000000D03*
D13*
X202735000Y-108000000D03*
G04 #@! TD*
D19*
G04 #@! TO.C,D8*
X232400000Y-106381827D03*
D20*
X232400000Y-98761827D03*
G04 #@! TD*
D19*
G04 #@! TO.C,D3*
X236000000Y-92535000D03*
D20*
X236000000Y-84915000D03*
G04 #@! TD*
D24*
G04 #@! TO.C,D10*
X243000000Y-123185000D03*
D25*
X243000000Y-125725000D03*
G04 #@! TD*
D10*
G04 #@! TO.C,J2*
X243020000Y-97810000D03*
D11*
X243020000Y-95270000D03*
X243020000Y-92730000D03*
X243020000Y-90190000D03*
G04 #@! TD*
D17*
G04 #@! TO.C,Q2*
X206486965Y-92397963D03*
D18*
X203946965Y-94937963D03*
X201406965Y-92397963D03*
G04 #@! TD*
D24*
G04 #@! TO.C,D9*
X243013249Y-132037500D03*
D25*
X243013249Y-134577500D03*
G04 #@! TD*
D26*
G04 #@! TO.C,J5*
X205580000Y-69500000D03*
D27*
X203040000Y-69500000D03*
X200500000Y-69500000D03*
X197960000Y-69500000D03*
G04 #@! TD*
D14*
G04 #@! TO.C,C4*
X199900000Y-133288614D03*
X201500000Y-132617677D03*
D15*
X201500000Y-130117677D03*
X203100000Y-129446740D03*
G04 #@! TD*
D16*
G04 #@! TO.C,J21*
X191000000Y-98460000D03*
D11*
X191000000Y-101000000D03*
X191000000Y-103540000D03*
X191000000Y-106080000D03*
G04 #@! TD*
D19*
G04 #@! TO.C,D6*
X229000000Y-109620000D03*
D20*
X229000000Y-102000000D03*
G04 #@! TD*
D16*
G04 #@! TO.C,J12*
X190980000Y-49960000D03*
D11*
X190980000Y-52500000D03*
X190980000Y-55040000D03*
X190980000Y-57580000D03*
G04 #@! TD*
D28*
G04 #@! TO.C,SW2*
X236250000Y-58750000D03*
X242750000Y-58750000D03*
X236250000Y-63250000D03*
X242750000Y-63250000D03*
G04 #@! TD*
D16*
G04 #@! TO.C,J16*
X190970395Y-74290910D03*
D11*
X190970395Y-76830910D03*
X190970395Y-79370910D03*
X190970395Y-81910910D03*
G04 #@! TD*
D26*
G04 #@! TO.C,J8*
X244162160Y-51480000D03*
D27*
X241622160Y-51480000D03*
X239082160Y-51480000D03*
X236542160Y-51480000D03*
G04 #@! TD*
D29*
G04 #@! TO.C,H1*
X220500000Y-107000000D03*
G04 #@! TD*
D16*
G04 #@! TO.C,J3*
X191000000Y-120460000D03*
D11*
X191000000Y-123000000D03*
G04 #@! TD*
D29*
G04 #@! TO.C,H2*
X222500000Y-90000000D03*
G04 #@! TD*
D28*
G04 #@! TO.C,SW1*
X199250000Y-56250000D03*
X199250000Y-49750000D03*
X203750000Y-56250000D03*
X203750000Y-49750000D03*
G04 #@! TD*
D19*
G04 #@! TO.C,D4*
X232449935Y-95726735D03*
D20*
X232449935Y-88106735D03*
G04 #@! TD*
D14*
G04 #@! TO.C,U2*
X219025000Y-79325000D03*
D30*
X221565000Y-79325000D03*
X224105000Y-79325000D03*
X226645000Y-79325000D03*
X229185000Y-79325000D03*
X231725000Y-79325000D03*
X234265000Y-79325000D03*
X236805000Y-79325000D03*
X236805000Y-69165000D03*
X234265000Y-69165000D03*
X231725000Y-69165000D03*
X229185000Y-69165000D03*
X226645000Y-69165000D03*
X224105000Y-69165000D03*
X221565000Y-69165000D03*
X219025000Y-69165000D03*
G04 #@! TD*
D19*
G04 #@! TO.C,D5*
X225500000Y-111810000D03*
D20*
X225500000Y-104190000D03*
G04 #@! TD*
D12*
G04 #@! TO.C,J18*
X198093709Y-92675000D03*
D13*
X198093709Y-90135000D03*
G04 #@! TD*
D12*
G04 #@! TO.C,J17*
X198260579Y-99586636D03*
D13*
X198260579Y-102126636D03*
G04 #@! TD*
D16*
G04 #@! TO.C,J6*
X191000000Y-62380000D03*
D11*
X191000000Y-64920000D03*
X191000000Y-67460000D03*
X191000000Y-70000000D03*
G04 #@! TD*
D31*
G04 #@! TO.C,L2*
X215500000Y-124500000D03*
X215500000Y-129500000D03*
G04 #@! TD*
D10*
G04 #@! TO.C,J9*
X243040000Y-74540000D03*
D11*
X243040000Y-72000000D03*
X243040000Y-69460000D03*
X243040000Y-66920000D03*
G04 #@! TD*
D10*
G04 #@! TO.C,J14*
X191020000Y-133250000D03*
D11*
X191020000Y-130710000D03*
G04 #@! TD*
D19*
G04 #@! TO.C,D2*
X229000000Y-98810000D03*
D20*
X229000000Y-91190000D03*
G04 #@! TD*
D26*
G04 #@! TO.C,J10*
X205500000Y-79500000D03*
D27*
X202960000Y-79500000D03*
X200420000Y-79500000D03*
X197880000Y-79500000D03*
G04 #@! TD*
D14*
G04 #@! TO.C,C18*
X214100000Y-107829063D03*
X212500000Y-108500000D03*
D15*
X212500000Y-111000000D03*
X210900000Y-111670937D03*
G04 #@! TD*
D19*
G04 #@! TO.C,D7*
X236000000Y-103345000D03*
D20*
X236000000Y-95725000D03*
G04 #@! TD*
D32*
G04 #@! TO.C,R6*
X213724336Y-56999716D03*
X213724336Y-58824716D03*
G04 #@! TD*
G04 #@! TO.C,R4*
X223000000Y-55087500D03*
X223000000Y-56912500D03*
G04 #@! TD*
D33*
G04 #@! TO.C,R7*
X214587500Y-60912500D03*
X216412500Y-60912500D03*
G04 #@! TD*
D34*
G04 #@! TO.C,U3*
X233900000Y-123200000D03*
X233900000Y-116800000D03*
D35*
X238900000Y-120000000D03*
D36*
X196000000Y-127900000D03*
X196000000Y-112100000D03*
G04 #@! TD*
D32*
G04 #@! TO.C,R8*
X215500000Y-57000000D03*
X215500000Y-58825000D03*
G04 #@! TD*
D37*
G04 #@! TO.C,R5*
X222825000Y-52912500D03*
X221000000Y-52912500D03*
G04 #@! TD*
G04 #@! TO.C,R9*
X223412500Y-60912500D03*
X221587500Y-60912500D03*
G04 #@! TD*
M02*
