G04 #@! TF.GenerationSoftware,KiCad,Pcbnew,8.0.0*
G04 #@! TF.CreationDate,2024-03-12T14:16:29+01:00*
G04 #@! TF.ProjectId,Samochodzik,53616d6f-6368-46f6-947a-696b2e6b6963,rev?*
G04 #@! TF.SameCoordinates,Original*
G04 #@! TF.FileFunction,Soldermask,Top*
G04 #@! TF.FilePolarity,Negative*
%FSLAX46Y46*%
G04 Gerber Fmt 4.6, Leading zero omitted, Abs format (unit mm)*
G04 Created by KiCad (PCBNEW 8.0.0) date 2024-03-12 14:16:29*
%MOMM*%
%LPD*%
G01*
G04 APERTURE LIST*
G04 Aperture macros list*
%AMRoundRect*
0 Rectangle with rounded corners*
0 $1 Rounding radius*
0 $2 $3 $4 $5 $6 $7 $8 $9 X,Y pos of 4 corners*
0 Add a 4 corners polygon primitive as box body*
4,1,4,$2,$3,$4,$5,$6,$7,$8,$9,$2,$3,0*
0 Add four circle primitives for the rounded corners*
1,1,$1+$1,$2,$3*
1,1,$1+$1,$4,$5*
1,1,$1+$1,$6,$7*
1,1,$1+$1,$8,$9*
0 Add four rect primitives between the rounded corners*
20,1,$1+$1,$2,$3,$4,$5,0*
20,1,$1+$1,$4,$5,$6,$7,0*
20,1,$1+$1,$6,$7,$8,$9,0*
20,1,$1+$1,$8,$9,$2,$3,0*%
G04 Aperture macros list end*
%ADD10RoundRect,0.150000X-0.150000X0.512500X-0.150000X-0.512500X0.150000X-0.512500X0.150000X0.512500X0*%
%ADD11RoundRect,0.250000X-0.337500X-0.475000X0.337500X-0.475000X0.337500X0.475000X-0.337500X0.475000X0*%
%ADD12RoundRect,0.250000X0.845000X-0.620000X0.845000X0.620000X-0.845000X0.620000X-0.845000X-0.620000X0*%
%ADD13O,2.190000X1.740000*%
%ADD14R,1.700000X1.700000*%
%ADD15O,1.700000X1.700000*%
%ADD16R,1.600000X1.600000*%
%ADD17C,1.600000*%
%ADD18RoundRect,0.250000X-0.845000X0.620000X-0.845000X-0.620000X0.845000X-0.620000X0.845000X0.620000X0*%
%ADD19RoundRect,0.237500X-0.250000X-0.237500X0.250000X-0.237500X0.250000X0.237500X-0.250000X0.237500X0*%
%ADD20RoundRect,0.237500X0.250000X0.237500X-0.250000X0.237500X-0.250000X-0.237500X0.250000X-0.237500X0*%
%ADD21RoundRect,0.375000X-0.375000X0.625000X-0.375000X-0.625000X0.375000X-0.625000X0.375000X0.625000X0*%
%ADD22RoundRect,0.500000X-1.400000X0.500000X-1.400000X-0.500000X1.400000X-0.500000X1.400000X0.500000X0*%
%ADD23R,1.500000X1.500000*%
%ADD24C,1.500000*%
%ADD25R,2.200000X2.200000*%
%ADD26O,2.200000X2.200000*%
%ADD27O,3.500000X3.500000*%
%ADD28R,1.905000X2.000000*%
%ADD29O,1.905000X2.000000*%
%ADD30RoundRect,0.237500X0.237500X-0.250000X0.237500X0.250000X-0.237500X0.250000X-0.237500X-0.250000X0*%
%ADD31R,1.800000X1.800000*%
%ADD32C,1.800000*%
%ADD33R,1.000000X0.400000*%
%ADD34RoundRect,0.250000X-0.574524X-0.097227X-0.097227X-0.574524X0.574524X0.097227X0.097227X0.574524X0*%
%ADD35RoundRect,0.250000X0.787500X1.025000X-0.787500X1.025000X-0.787500X-1.025000X0.787500X-1.025000X0*%
%ADD36RoundRect,0.250000X-1.025000X0.787500X-1.025000X-0.787500X1.025000X-0.787500X1.025000X0.787500X0*%
%ADD37RoundRect,0.250000X0.620000X0.845000X-0.620000X0.845000X-0.620000X-0.845000X0.620000X-0.845000X0*%
%ADD38O,1.740000X2.190000*%
%ADD39RoundRect,0.237500X-0.237500X0.250000X-0.237500X-0.250000X0.237500X-0.250000X0.237500X0.250000X0*%
%ADD40RoundRect,0.250000X0.337500X0.475000X-0.337500X0.475000X-0.337500X-0.475000X0.337500X-0.475000X0*%
%ADD41R,1.750000X0.450000*%
%ADD42RoundRect,0.200000X0.275000X-0.200000X0.275000X0.200000X-0.275000X0.200000X-0.275000X-0.200000X0*%
%ADD43C,2.000000*%
%ADD44R,3.500000X2.350000*%
%ADD45RoundRect,0.250000X0.475000X-0.337500X0.475000X0.337500X-0.475000X0.337500X-0.475000X-0.337500X0*%
%ADD46C,3.200000*%
%ADD47R,2.500000X1.000000*%
%ADD48R,1.000000X1.800000*%
%ADD49O,1.600000X1.600000*%
%ADD50RoundRect,0.250000X1.025000X-0.787500X1.025000X0.787500X-1.025000X0.787500X-1.025000X-0.787500X0*%
%ADD51RoundRect,0.150000X-0.587500X-0.150000X0.587500X-0.150000X0.587500X0.150000X-0.587500X0.150000X0*%
%ADD52C,2.600000*%
%ADD53RoundRect,0.250000X-0.475000X0.337500X-0.475000X-0.337500X0.475000X-0.337500X0.475000X0.337500X0*%
G04 APERTURE END LIST*
D10*
G04 #@! TO.C,U4*
X210261751Y-126275000D03*
X209311751Y-126275000D03*
X208361751Y-126275000D03*
X208361751Y-128550000D03*
X209311751Y-128550000D03*
X210261751Y-128550000D03*
G04 #@! TD*
D11*
G04 #@! TO.C,C8*
X209929171Y-137742944D03*
X212004171Y-137742944D03*
G04 #@! TD*
D12*
G04 #@! TO.C,J20*
X243020000Y-86310000D03*
D13*
X243020000Y-83770000D03*
X243020000Y-81230000D03*
X243020000Y-78690000D03*
G04 #@! TD*
D11*
G04 #@! TO.C,C7*
X230486751Y-135412500D03*
X232561751Y-135412500D03*
G04 #@! TD*
D12*
G04 #@! TO.C,J1*
X243020000Y-109810000D03*
D13*
X243020000Y-107270000D03*
X243020000Y-104730000D03*
X243020000Y-102190000D03*
G04 #@! TD*
D14*
G04 #@! TO.C,J11*
X232275000Y-54062500D03*
D15*
X229735000Y-54062500D03*
G04 #@! TD*
D16*
G04 #@! TO.C,C2*
X223900000Y-132788614D03*
X225500000Y-132117677D03*
D17*
X225500000Y-129617677D03*
X227100000Y-128946740D03*
G04 #@! TD*
D18*
G04 #@! TO.C,J4*
X191000000Y-112960000D03*
D13*
X191000000Y-115500000D03*
G04 #@! TD*
D19*
G04 #@! TO.C,R14*
X202652383Y-58628067D03*
X204477383Y-58628067D03*
G04 #@! TD*
G04 #@! TO.C,R20*
X240587500Y-128777500D03*
X242412500Y-128777500D03*
G04 #@! TD*
G04 #@! TO.C,R21*
X240587500Y-119960000D03*
X242412500Y-119960000D03*
G04 #@! TD*
D18*
G04 #@! TO.C,J19*
X191000000Y-85920000D03*
D13*
X191000000Y-88460000D03*
X191000000Y-91000000D03*
X191000000Y-93540000D03*
G04 #@! TD*
D20*
G04 #@! TO.C,R27*
X233307527Y-60824716D03*
X231482527Y-60824716D03*
G04 #@! TD*
D14*
G04 #@! TO.C,J15*
X204775000Y-86000000D03*
D15*
X202235000Y-86000000D03*
G04 #@! TD*
D21*
G04 #@! TO.C,U5*
X231309251Y-116850000D03*
X229009251Y-116850000D03*
D22*
X229009251Y-123150000D03*
D21*
X226709251Y-116850000D03*
G04 #@! TD*
D23*
G04 #@! TO.C,Q1*
X206543635Y-101499693D03*
D24*
X204003635Y-104039693D03*
X201463635Y-101499693D03*
G04 #@! TD*
D25*
G04 #@! TO.C,D1*
X225500000Y-101310000D03*
D26*
X225500000Y-93690000D03*
G04 #@! TD*
D27*
G04 #@! TO.C,U7*
X212228589Y-118708785D03*
D28*
X209688589Y-135368785D03*
D29*
X212228589Y-135368785D03*
X214768589Y-135368785D03*
G04 #@! TD*
D30*
G04 #@! TO.C,R18*
X207637891Y-63053170D03*
X207637891Y-61228170D03*
G04 #@! TD*
D14*
G04 #@! TO.C,J7*
X232275000Y-57912500D03*
D15*
X229735000Y-57912500D03*
G04 #@! TD*
D16*
G04 #@! TO.C,C17*
X212900000Y-89288614D03*
X214500000Y-88617677D03*
D17*
X214500000Y-86117677D03*
X216100000Y-85446740D03*
G04 #@! TD*
D31*
G04 #@! TO.C,D11*
X243000000Y-114460000D03*
D32*
X243000000Y-117000000D03*
G04 #@! TD*
D30*
G04 #@! TO.C,R17*
X207637891Y-59553170D03*
X207637891Y-57728170D03*
G04 #@! TD*
D19*
G04 #@! TO.C,R19*
X240485442Y-137542821D03*
X242310442Y-137542821D03*
G04 #@! TD*
D33*
G04 #@! TO.C,U8*
X225000000Y-71300000D03*
X225000000Y-71950000D03*
X225000000Y-72600000D03*
X225000000Y-73250000D03*
X225000000Y-73900000D03*
X225000000Y-74550000D03*
X225000000Y-75200000D03*
X225000000Y-75850000D03*
X225000000Y-76500000D03*
X225000000Y-77150000D03*
X230800000Y-77150000D03*
X230800000Y-76500000D03*
X230800000Y-75850000D03*
X230800000Y-75200000D03*
X230800000Y-74550000D03*
X230800000Y-73900000D03*
X230800000Y-73250000D03*
X230800000Y-72600000D03*
X230800000Y-71950000D03*
X230800000Y-71300000D03*
G04 #@! TD*
D20*
G04 #@! TO.C,R24*
X202973831Y-89345387D03*
X201148831Y-89345387D03*
G04 #@! TD*
D14*
G04 #@! TO.C,J13*
X205275000Y-108000000D03*
D15*
X202735000Y-108000000D03*
G04 #@! TD*
D25*
G04 #@! TO.C,D8*
X232400000Y-106381827D03*
D26*
X232400000Y-98761827D03*
G04 #@! TD*
D25*
G04 #@! TO.C,D3*
X236000000Y-92535000D03*
D26*
X236000000Y-84915000D03*
G04 #@! TD*
D34*
G04 #@! TO.C,C13*
X230146009Y-126010391D03*
X231613255Y-127477637D03*
G04 #@! TD*
D31*
G04 #@! TO.C,D10*
X243000000Y-123185000D03*
D32*
X243000000Y-125725000D03*
G04 #@! TD*
D20*
G04 #@! TO.C,R12*
X204473864Y-63014557D03*
X202648864Y-63014557D03*
G04 #@! TD*
D12*
G04 #@! TO.C,J2*
X243020000Y-97810000D03*
D13*
X243020000Y-95270000D03*
X243020000Y-92730000D03*
X243020000Y-90190000D03*
G04 #@! TD*
D23*
G04 #@! TO.C,Q2*
X206486965Y-92397963D03*
D24*
X203946965Y-94937963D03*
X201406965Y-92397963D03*
G04 #@! TD*
D35*
G04 #@! TO.C,C3*
X205465391Y-123547877D03*
X199240391Y-123547877D03*
G04 #@! TD*
D36*
G04 #@! TO.C,C1*
X221986751Y-116822500D03*
X221986751Y-123047500D03*
G04 #@! TD*
D31*
G04 #@! TO.C,D9*
X243013249Y-132037500D03*
D32*
X243013249Y-134577500D03*
G04 #@! TD*
D37*
G04 #@! TO.C,J5*
X205580000Y-69500000D03*
D38*
X203040000Y-69500000D03*
X200500000Y-69500000D03*
X197960000Y-69500000D03*
G04 #@! TD*
D16*
G04 #@! TO.C,C4*
X199900000Y-133288614D03*
X201500000Y-132617677D03*
D17*
X201500000Y-130117677D03*
X203100000Y-129446740D03*
G04 #@! TD*
D39*
G04 #@! TO.C,R3*
X206419934Y-116496658D03*
X206419934Y-118321658D03*
G04 #@! TD*
D18*
G04 #@! TO.C,J21*
X191000000Y-98460000D03*
D13*
X191000000Y-101000000D03*
X191000000Y-103540000D03*
X191000000Y-106080000D03*
G04 #@! TD*
D25*
G04 #@! TO.C,D6*
X229000000Y-109620000D03*
D26*
X229000000Y-102000000D03*
G04 #@! TD*
D40*
G04 #@! TO.C,C16*
X206759273Y-98306849D03*
X204684273Y-98306849D03*
G04 #@! TD*
D18*
G04 #@! TO.C,J12*
X190980000Y-49960000D03*
D13*
X190980000Y-52500000D03*
X190980000Y-55040000D03*
X190980000Y-57580000D03*
G04 #@! TD*
D41*
G04 #@! TO.C,U6*
X220335354Y-101575000D03*
X220335354Y-100925000D03*
X220335354Y-100275000D03*
X220335354Y-99625000D03*
X220335354Y-98975000D03*
X220335354Y-98325000D03*
X220335354Y-97675000D03*
X220335354Y-97025000D03*
X220335354Y-96375000D03*
X220335354Y-95725000D03*
X220335354Y-95075000D03*
X220335354Y-94425000D03*
X213135354Y-94425000D03*
X213135354Y-95075000D03*
X213135354Y-95725000D03*
X213135354Y-96375000D03*
X213135354Y-97025000D03*
X213135354Y-97675000D03*
X213135354Y-98325000D03*
X213135354Y-98975000D03*
X213135354Y-99625000D03*
X213135354Y-100275000D03*
X213135354Y-100925000D03*
X213135354Y-101575000D03*
G04 #@! TD*
D42*
G04 #@! TO.C,R25*
X208446965Y-90997771D03*
X208446965Y-89347771D03*
G04 #@! TD*
D43*
G04 #@! TO.C,SW2*
X236250000Y-58750000D03*
X242750000Y-58750000D03*
X236250000Y-63250000D03*
X242750000Y-63250000D03*
G04 #@! TD*
D44*
G04 #@! TO.C,L1*
X215500000Y-123975000D03*
X215500000Y-130025000D03*
G04 #@! TD*
D19*
G04 #@! TO.C,R28*
X214587500Y-77000000D03*
X216412500Y-77000000D03*
G04 #@! TD*
D30*
G04 #@! TO.C,R1*
X208986751Y-132912500D03*
X208986751Y-131087500D03*
G04 #@! TD*
D45*
G04 #@! TO.C,C6*
X219000000Y-135537500D03*
X219000000Y-133462500D03*
G04 #@! TD*
D30*
G04 #@! TO.C,R22*
X208503635Y-102182193D03*
X208503635Y-100357193D03*
G04 #@! TD*
D18*
G04 #@! TO.C,J16*
X190970395Y-74290910D03*
D13*
X190970395Y-76830910D03*
X190970395Y-79370910D03*
X190970395Y-81910910D03*
G04 #@! TD*
D30*
G04 #@! TO.C,R11*
X207637891Y-52553170D03*
X207637891Y-50728170D03*
G04 #@! TD*
D37*
G04 #@! TO.C,J8*
X244162160Y-51480000D03*
D38*
X241622160Y-51480000D03*
X239082160Y-51480000D03*
X236542160Y-51480000D03*
G04 #@! TD*
D46*
G04 #@! TO.C,H1*
X220500000Y-107000000D03*
G04 #@! TD*
D18*
G04 #@! TO.C,J3*
X191000000Y-120460000D03*
D13*
X191000000Y-123000000D03*
G04 #@! TD*
D46*
G04 #@! TO.C,H2*
X222500000Y-90000000D03*
G04 #@! TD*
D39*
G04 #@! TO.C,R31*
X208511248Y-96707074D03*
X208511248Y-98532074D03*
G04 #@! TD*
D47*
G04 #@! TO.C,U1*
X210900000Y-48912500D03*
X210900000Y-50912500D03*
X210900000Y-52912500D03*
X210900000Y-54912500D03*
X210900000Y-56912500D03*
X210900000Y-58912500D03*
X210900000Y-60912500D03*
X210900000Y-62912500D03*
D48*
X213500000Y-64412500D03*
X215500000Y-64412500D03*
X217500000Y-64412500D03*
X219500000Y-64412500D03*
X221500000Y-64412500D03*
X223500000Y-64412500D03*
D47*
X226100000Y-62912500D03*
X226100000Y-60912500D03*
X226100000Y-58912500D03*
X226100000Y-56912500D03*
X226100000Y-54912500D03*
X226100000Y-52912500D03*
X226100000Y-50912500D03*
X226100000Y-48912500D03*
G04 #@! TD*
D43*
G04 #@! TO.C,SW1*
X199250000Y-56250000D03*
X199250000Y-49750000D03*
X203750000Y-56250000D03*
X203750000Y-49750000D03*
G04 #@! TD*
D19*
G04 #@! TO.C,R30*
X214587500Y-73000000D03*
X216412500Y-73000000D03*
G04 #@! TD*
D25*
G04 #@! TO.C,D4*
X232449935Y-95726735D03*
D26*
X232449935Y-88106735D03*
G04 #@! TD*
D16*
G04 #@! TO.C,U2*
X219025000Y-79325000D03*
D49*
X221565000Y-79325000D03*
X224105000Y-79325000D03*
X226645000Y-79325000D03*
X229185000Y-79325000D03*
X231725000Y-79325000D03*
X234265000Y-79325000D03*
X236805000Y-79325000D03*
X236805000Y-69165000D03*
X234265000Y-69165000D03*
X231725000Y-69165000D03*
X229185000Y-69165000D03*
X226645000Y-69165000D03*
X224105000Y-69165000D03*
X221565000Y-69165000D03*
X219025000Y-69165000D03*
G04 #@! TD*
D20*
G04 #@! TO.C,R26*
X233344818Y-51095740D03*
X231519818Y-51095740D03*
G04 #@! TD*
D11*
G04 #@! TO.C,C14*
X210308465Y-66911542D03*
X212383465Y-66911542D03*
G04 #@! TD*
D30*
G04 #@! TO.C,R10*
X207637891Y-56053170D03*
X207637891Y-54228170D03*
G04 #@! TD*
D25*
G04 #@! TO.C,D5*
X225500000Y-111810000D03*
D26*
X225500000Y-104190000D03*
G04 #@! TD*
D19*
G04 #@! TO.C,R23*
X201172575Y-98548954D03*
X202997575Y-98548954D03*
G04 #@! TD*
D14*
G04 #@! TO.C,J18*
X198093709Y-92675000D03*
D15*
X198093709Y-90135000D03*
G04 #@! TD*
D14*
G04 #@! TO.C,J17*
X198260579Y-99586636D03*
D15*
X198260579Y-102126636D03*
G04 #@! TD*
D19*
G04 #@! TO.C,R29*
X214587500Y-75000000D03*
X216412500Y-75000000D03*
G04 #@! TD*
D50*
G04 #@! TO.C,C15*
X236084251Y-123182500D03*
X236084251Y-116957500D03*
G04 #@! TD*
D18*
G04 #@! TO.C,J6*
X191000000Y-62380000D03*
D13*
X191000000Y-64920000D03*
X191000000Y-67460000D03*
X191000000Y-70000000D03*
G04 #@! TD*
D51*
G04 #@! TO.C,Q4*
X203062500Y-100550000D03*
X203062500Y-102450000D03*
X204937500Y-101500000D03*
G04 #@! TD*
D52*
G04 #@! TO.C,L2*
X215500000Y-124500000D03*
X215500000Y-129500000D03*
G04 #@! TD*
D12*
G04 #@! TO.C,J9*
X243040000Y-74540000D03*
D13*
X243040000Y-72000000D03*
X243040000Y-69460000D03*
X243040000Y-66920000D03*
G04 #@! TD*
D12*
G04 #@! TO.C,J14*
X191020000Y-133250000D03*
D13*
X191020000Y-130710000D03*
G04 #@! TD*
D20*
G04 #@! TO.C,R15*
X237169313Y-56476199D03*
X235344313Y-56476199D03*
G04 #@! TD*
D25*
G04 #@! TO.C,D2*
X229000000Y-98810000D03*
D26*
X229000000Y-91190000D03*
G04 #@! TD*
D20*
G04 #@! TO.C,R13*
X237412500Y-65912500D03*
X235587500Y-65912500D03*
G04 #@! TD*
D45*
G04 #@! TO.C,C9*
X216336417Y-118736190D03*
X216336417Y-116661190D03*
G04 #@! TD*
D30*
G04 #@! TO.C,R2*
X208330848Y-118350611D03*
X208330848Y-116525611D03*
G04 #@! TD*
D37*
G04 #@! TO.C,J10*
X205500000Y-79500000D03*
D38*
X202960000Y-79500000D03*
X200420000Y-79500000D03*
X197880000Y-79500000D03*
G04 #@! TD*
D53*
G04 #@! TO.C,C10*
X245500000Y-61875000D03*
X245500000Y-63950000D03*
G04 #@! TD*
D40*
G04 #@! TO.C,C5*
X210524251Y-123912500D03*
X208449251Y-123912500D03*
G04 #@! TD*
D16*
G04 #@! TO.C,C18*
X214100000Y-107829063D03*
X212500000Y-108500000D03*
D17*
X212500000Y-111000000D03*
X210900000Y-111670937D03*
G04 #@! TD*
D39*
G04 #@! TO.C,R16*
X196732276Y-57263840D03*
X196732276Y-59088840D03*
G04 #@! TD*
D25*
G04 #@! TO.C,D7*
X236000000Y-103345000D03*
D26*
X236000000Y-95725000D03*
G04 #@! TD*
D45*
G04 #@! TO.C,C12*
X216290467Y-70999225D03*
X216290467Y-68924225D03*
G04 #@! TD*
D51*
G04 #@! TO.C,Q3*
X202962500Y-91440552D03*
X202962500Y-93340552D03*
X204837500Y-92390552D03*
G04 #@! TD*
D40*
G04 #@! TO.C,C11*
X200683379Y-58884303D03*
X198608379Y-58884303D03*
G04 #@! TD*
M02*
